<?xml version="1.0" encoding="utf-8"?>
<!-- Generator: Adobe Illustrator 26.0.1, SVG Export Plug-In . SVG Version: 6.00 Build 0)  -->
<svg version="1.1" id="Calque_1" xmlns="http://www.w3.org/2000/svg" xmlns:xlink="http://www.w3.org/1999/xlink" x="0px" y="0px"
	 viewBox="0 0 365 195" style="enable-background:new 0 0 365 195;" xml:space="preserve">
<style type="text/css">
	.st0{fill:#000091;}
	.st1{fill:#E1000F;}
	.st2{fill:#9D9D9C;}
</style>
<path d="M102.4,172.2c0.8,0,1.5,0.6,1.2,2.2l-3.8,0.9C100.5,173.5,101.6,172.2,102.4,172.2 M104.6,178.3h-0.8c-1,1.1-2,2-3,2
	s-1.6-0.6-1.6-2c0-0.6,0.1-1.2,0.2-1.7l6.1-2c1.2-2.8-0.2-4.1-1.9-4.1c-2.9,0-6.2,4.9-6.2,9.1c0,1.9,0.9,3,2.3,3
	C101.4,182.6,103.1,181,104.6,178.3 M103.3,169.4l4.3-4v-0.5h-2.3l-2.7,4.5H103.3z M90.1,172.2h2l-3.2,8.9c-0.3,0.8,0.1,1.5,0.9,1.5
	c1.8,0,4.8-1.8,5.9-4.3h-0.6c-0.8,0.9-2.4,2-3.7,2.3l3-8.3h3l0.4-1.3h-3l1.1-3.2h-1.2l-2.1,3.2l-2.5,0.4L90.1,172.2z M87.3,171.8
	c0.2-0.8-0.3-1.3-0.7-1.3c-1.8,0-3.9,1.6-4.7,3.8h0.6c0.6-0.8,1.6-1.7,2.5-1.9l-3.4,8.8c-0.3,0.8,0.3,1.3,0.7,1.3
	c1.7,0,3.7-1.6,4.5-3.8h-0.6c-0.6,0.8-1.6,1.7-2.5,1.9L87.3,171.8z M87.9,167.4c0.8,0,1.5-0.6,1.5-1.5c0-0.8-0.7-1.5-1.5-1.5
	s-1.5,0.7-1.5,1.5C86.5,166.7,87.1,167.4,87.9,167.4 M68.4,181c-0.4,1,0,1.6,1,1.6c0.6,0,0.9-0.2,1.1-0.8l2.4-6.2
	c1.1-1.3,3.3-2.8,4.2-2.8c0.6,0,0.6,0.5,0.1,1.3l-3.6,6.9c-0.4,0.7,0.1,1.5,0.9,1.5c1.8,0,3.9-1.6,4.7-3.8h-0.6
	c-0.6,0.8-1.6,1.7-2.5,1.9l3.1-6.3c0.4-0.8,0.6-1.6,0.6-2.2c0-1-0.6-1.7-1.6-1.7c-1.5,0-3.1,1.7-4.9,3.9v-1.6c0-1.2-0.4-2.2-1.4-2.2
	c-0.7,0-1.3,0.6-1.9,1.4v0.2c1.2-0.1,1.7,1.7,0.8,3.5L68.4,181z M68.4,173.2c0.4-1.4,0.2-2.7-0.9-2.7c-1.3,0-1.6,1-3,3.9v-1.6
	c0-1.2-0.4-2.2-1.4-2.2c-1.2,0-2.4,1.9-3.2,3.8h0.6c0.6-0.9,1.2-1.4,1.6-1.4c0.5,0,0.8,0.8,0,2.6l-2.4,5.3c-0.4,1,0,1.6,1,1.6
	c0.6,0,0.9-0.2,1.1-0.8l2.4-6.2c0.7-0.8,1.3-1.5,2-2.3L68.4,173.2z M54.7,172.2c0.8,0,1.5,0.6,1.2,2.2l-3.8,0.9
	C52.7,173.5,53.9,172.2,54.7,172.2 M56.8,178.3H56c-1,1.1-2,2-3,2s-1.6-0.6-1.6-2c0-0.6,0.1-1.2,0.2-1.7l6.1-2
	c1.2-2.8-0.2-4.1-1.9-4.1c-2.9,0-6.2,4.9-6.2,9.1c0,1.9,0.9,3,2.3,3C53.7,182.6,55.4,181,56.8,178.3 M42.4,172.2h2l-3.2,8.9
	c-0.3,0.8,0.1,1.5,0.9,1.5c1.8,0,4.8-1.8,5.9-4.3h-0.6c-0.8,0.9-2.4,2-3.7,2.3l3-8.3h3l0.4-1.3h-3l1.1-3.2H47l-2.1,3.2l-2.5,0.4
	L42.4,172.2z M31.2,179.1c0-2.7,3-6.4,4.7-6.4c0.4,0,0.7,0,1,0.1l-1.8,4.7c-1,1.2-2.6,2.8-3.3,2.8C31.4,180.3,31.2,180,31.2,179.1
	 M40.5,170l-0.9-0.1l-1,1h-0.2c-5.1,0-9.4,5.7-9.4,9.8c0,1.2,0.7,1.8,1.8,1.8c1.3,0,2.6-1.9,4-3.9l-0.1,0.7c-0.2,2,0.4,3.1,1.5,3.1
	c1.2,0,2.4-1.9,3.2-3.8h-0.6c-0.6,0.9-1.2,1.4-1.6,1.4c-0.5,0-0.8-0.8,0-2.6L40.5,170z M29.7,173.2c0.4-1.4,0.2-2.7-0.9-2.7
	c-1.3,0-1.6,1-3,3.9v-1.6c0-1.2-0.4-2.2-1.4-2.2c-1.2,0-2.4,1.9-3.2,3.8h0.6c0.6-0.9,1.2-1.4,1.6-1.4c0.5,0,0.8,0.8,0,2.6l-2.4,5.3
	c-0.4,1,0,1.6,1,1.6c0.6,0,0.9-0.2,1.1-0.8l2.4-6.2c0.7-0.8,1.3-1.5,2-2.3L29.7,173.2z M12.7,182.2l0.2-0.7c-3-0.6-3.3-0.6-2.2-3.8
	l1.2-3.3h3.3c1.5,0,1.5,0.6,1.3,2.2h0.8l2-5.3h-0.8c-0.7,1.3-1.3,2.2-2.9,2.2h-3.3l1.7-4.7c0.5-1.5,0.8-1.8,2.8-1.8h1.4
	c2.1,0,2.3,0.6,2.3,2.6h0.8L22,166H9.9l-0.2,0.7c2.4,0.5,2.6,0.7,1.5,3.8l-2.7,7.3c-1.1,3-1.6,3.3-4.3,3.8L4,182.3L12.7,182.2z"/>
<path d="M72.7,144.4c0.8,0,1.5,0.6,1.2,2.2l-3.8,0.9C70.8,145.8,71.9,144.4,72.7,144.4 M74.9,150.6h-0.8c-1,1.1-2,2-3,2
	s-1.6-0.6-1.6-2c0-0.6,0.1-1.2,0.2-1.7l6.1-2c1.2-2.8-0.2-4.1-1.9-4.1c-2.9,0-6.2,4.9-6.2,9.1c0,1.9,0.9,3,2.3,3
	C71.7,154.9,73.4,153.2,74.9,150.6 M73.6,141.7l4.3-4v-0.5h-2.3l-2.7,4.5H73.6z M60.4,144.5h2l-3.2,8.9c-0.3,0.8,0.1,1.5,0.9,1.5
	c1.8,0,4.8-1.8,5.9-4.3h-0.6c-0.8,0.9-2.4,2-3.7,2.3l3-8.3h3l0.4-1.3h-3l1.1-3.2H65l-2.1,3.2l-2.5,0.4V144.5z M57.6,144.1
	c0.2-0.8-0.3-1.3-0.7-1.3c-1.8,0-3.9,1.6-4.7,3.8h0.6c0.6-0.8,1.6-1.7,2.5-1.9l-3.4,8.8c-0.3,0.8,0.3,1.3,0.7,1.3
	c1.7,0,3.7-1.6,4.5-3.8h-0.6c-0.6,0.8-1.6,1.7-2.5,1.9L57.6,144.1z M58.2,139.7c0.8,0,1.5-0.6,1.5-1.5c0-0.8-0.7-1.5-1.5-1.5
	s-1.5,0.7-1.5,1.5C56.8,139,57.4,139.7,58.2,139.7 M46.4,152.9l6.2-16.2l-0.2-0.2l-3.9,0.4v0.5l0.8,0.6c0.7,0.5,0.5,1-0.2,2.7
	l-4.8,12.7c-0.4,0.7,0.1,1.5,0.9,1.5c1.8,0,3.7-1.6,4.5-3.8h-0.6C48.5,151.9,47.4,152.8,46.4,152.9 M34.7,151.4c0-2.7,3-6.4,4.7-6.4
	c0.4,0,0.7,0,1,0.1l-1.8,4.7c-1,1.2-2.6,2.8-3.3,2.8C35,152.6,34.7,152.2,34.7,151.4 M44,142.3l-0.9-0.1l-1,1h-0.2
	c-5.1,0-9.4,5.7-9.4,9.8c0,1.2,0.7,1.8,1.8,1.8c1.3,0,2.6-1.9,4-3.9l-0.1,0.7c-0.2,2,0.4,3.1,1.5,3.1c1.2,0,2.4-1.9,3.2-3.8h-0.6
	c-0.6,0.9-1.2,1.4-1.6,1.4c-0.5,0-0.8-0.8,0-2.6L44,142.3z M21.4,157c0-1.2,1.1-1.9,2.8-2.6c0.5,0.3,1.3,0.6,2.4,0.9
	c1.7,0.6,2.3,0.8,2.3,1.3c0,1.1-1.8,1.9-4.3,1.9C22.5,158.6,21.4,158.1,21.4,157 M26,149.9c-0.7,0-1-0.6-1-1.3c0-2,1.1-4.9,2.7-4.9
	c0.7,0,1,0.6,1,1.3C28.8,146.9,27.7,149.9,26,149.9 M30.8,155.9c0-1.4-1.3-1.9-3.3-2.6c-1.8-0.5-2.6-0.7-2.6-1.3
	c0-0.5,0.4-1,1.1-1.4c2.9-0.2,4.8-2.8,4.8-5c0-0.5-0.1-0.9-0.2-1.2h2.5l0.4-1.3h-3.9c-0.5-0.3-1-0.4-1.6-0.4c-3.1,0-5.1,2.7-5.1,4.9
	c0,1.7,1.1,2.7,2.4,3c-1.4,0.6-2.2,1.4-2.2,2.3c0,0.5,0.2,0.9,0.6,1.2c-3.3,1-4.6,2.1-4.6,3.7c0,1.5,2,2.2,4.4,2.2
	C27.5,160,30.8,157.8,30.8,155.9 M15.3,146.4c1.5,0,1.5,0.6,1.3,2.2h0.8l2-5.3h-0.8c-0.7,1.3-1.3,2.2-2.9,2.2h-3.3L14,141
	c0.5-1.5,0.8-1.8,2.8-1.8h1.4c2.1,0,2.3,0.6,2.3,2.6h0.8l0.7-3.6H9.9l-0.2,0.7c2.4,0.5,2.6,0.7,1.5,3.8L8.5,150
	c-1.1,3-1.6,3.3-4.3,3.8L4,154.5h13.6l2.4-3.9h-0.9c-1.6,1.5-3.5,2.9-6.2,2.9c-3.6,0-3.3-0.2-2.1-3.5l1.3-3.5L15.3,146.4z
	 M17.1,137.1l4.3-3v-0.5h-2.6l-2.4,3.4h0.7V137.1z"/>
<path d="M71.3,116.7c0.8,0,1.5,0.6,1.2,2.2l-3.8,0.9C69.3,118,70.4,116.7,71.3,116.7 M73.4,122.9h-0.8c-1,1.1-2,2-3,2
	s-1.6-0.6-1.6-2c0-0.6,0.1-1.2,0.2-1.7l6.1-2c1.2-2.8-0.2-4.1-1.9-4.1c-2.9,0-6.2,4.9-6.2,9.1c0,1.9,0.9,3,2.3,3
	C70.3,127.1,72,125.5,73.4,122.9 M72.2,113.9l4.3-4v-0.5h-2.3l-2.7,4.5H72.2z M59.5,116.8h1.6l-3.2,8.9c-0.3,0.8,0.1,1.5,0.9,1.5
	c1.8,0,4.8-1.8,5.9-4.3h-0.6c-0.8,0.9-2.4,2-3.7,2.3l3-8.3h3l0.4-1.3h-3l1.1-3.2h-1.2l-2.1,3.2l-2.1,0.4L59.5,116.8z M57.9,117.8
	c0.4-1.4,0.2-2.7-0.9-2.7c-1.3,0-1.6,1-3,3.9v-1.6c0-1.2-0.4-2.2-1.4-2.2c-1.2,0-2.4,1.9-3.2,3.8h0.5c0.6-0.9,1.2-1.4,1.6-1.4
	c0.5,0,0.8,0.8,0,2.6l-2.4,5.3c-0.4,1,0,1.6,1,1.6c0.6,0,0.9-0.2,1.1-0.8l2.4-6.2c0.7-0.8,1.3-1.5,2-2.3L57.9,117.8z M44.3,116.7
	c0.8,0,1.5,0.6,1.2,2.2l-3.8,0.9C42.3,118,43.4,116.7,44.3,116.7 M46.4,122.9h-0.8c-1,1.1-2,2-3,2s-1.6-0.6-1.6-2
	c0-0.6,0.1-1.2,0.2-1.7l6.1-2c1.2-2.8-0.2-4.1-1.9-4.1c-2.9,0-6.2,4.9-6.2,9.1c0,1.9,0.9,3,2.3,3C43.2,127.1,45,125.5,46.4,122.9
	 M31.3,125.3c-0.6,0-1.5-0.6-1.5-1c0-0.2,0.3-0.8,0.6-1.7l1-2.6c1.1-1.3,2.7-2.6,3.6-2.6c0.6,0,1,0.4,1,1.2
	C36,120.9,33.8,125.3,31.3,125.3 M38.3,117.5c0-1.8-0.7-2.5-1.9-2.5c-1.6,0-3,1.6-4.5,3.6l3.7-9.7l-0.2-0.2l-3.9,0.4v0.5l0.8,0.6
	c0.7,0.5,0.5,1.1-0.2,2.7l-4,10.3c-0.3,0.8-0.6,1.6-0.6,1.9c0,1.1,1.4,2.1,2.8,2.1C33.3,127.1,38.3,121.7,38.3,117.5 M26.2,116.4
	c0.2-0.8-0.3-1.3-0.7-1.3c-1.8,0-3.9,1.6-4.7,3.8h0.6c0.6-0.8,1.6-1.7,2.5-1.9l-3.4,8.8c-0.3,0.8,0.3,1.3,0.7,1.3
	c1.7,0,3.7-1.6,4.5-3.8h-0.6c-0.6,0.8-1.6,1.7-2.5,1.9L26.2,116.4z M26.9,111.9c0.8,0,1.5-0.6,1.5-1.5c0-0.8-0.7-1.5-1.5-1.5
	s-1.5,0.7-1.5,1.5C25.4,111.3,26,111.9,26.9,111.9 M17.9,110.5H9.8l-0.2,0.7c2.4,0.5,2.6,0.7,1.5,3.8l-2.6,7.3
	c-1.1,3-1.6,3.3-4.3,3.8L4,126.8h12.3l2.7-4.7h-0.9c-1.5,1.7-3.3,3.7-6,3.7c-2.1,0-2.3-0.4-1.2-3.5l2.6-7.3c1.1-3,1.6-3.3,4.3-3.8
	L17.9,110.5z"/>
<path class="st0" d="M45.7,35.4c0.4-0.4,0.9-0.9,1.3-1.4c0.8-0.9,1.6-1.8,2.5-2.6c0.3-0.3,0.6-0.5,0.8-0.7c0.1-0.1,0.1-0.2,0.2-0.3
	c-0.4,0.2-0.6,0.5-1,0.6c-0.1,0-0.2-0.1-0.1-0.2c0.3-0.2,0.5-0.4,0.8-0.6c0,0,0,0-0.1,0S50,30.1,50,30c-1-0.2-1.7,0.5-2.4,1.1
	c-0.2,0.1-0.3-0.1-0.4-0.1c-1.1,0.4-2,1.4-3.1,1.8c0-0.1,0-0.1,0-0.2c-0.5,0.2-0.9,0.4-1.4,0.5c-0.7,0.2-1.3,0.1-1.9,0.1
	c-0.9,0.1-1.8,0.3-2.8,0.5h-0.1c-0.5,0.1-1,0.3-1.4,0.6c0,0,0,0-0.1,0l-0.1,0.1c-0.2,0.2-0.3,0.3-0.5,0.5c-0.5,0.2-0.8,0.7-1.3,1
	h-0.1c-0.4,0.4-0.8,0.8-1.2,1.2c0,0-0.1,0-0.2,0s0,0,0-0.1c0.1-0.1,0.1-0.2,0.2-0.3s0.1-0.2,0.2-0.4s0.2-0.3,0.3-0.5v-0.1h-0.1
	c0.4-0.4,0.8-0.7,1.3-1c-0.1,0-0.1,0-0.1-0.1s0.1-0.1,0.1-0.2c0,0,0,0,0-0.1c0,0,0,0-0.1-0.1c-0.1,0.1-0.3,0.2-0.4,0.2
	c-0.2,0.2-0.3,0.5-0.6,0.5h-0.1h-0.1c0,0,0,0,0-0.1c0,0,0,0,0-0.1c0,0,0,0,0-0.1c0,0,0-0.1,0.1-0.1c0,0,0,0,0-0.1s0.1-0.1,0.1-0.2
	v-0.1l0.1-0.1c0-0.1,0-0.1-0.1-0.1c0.1-0.2,0.3-0.3,0.5-0.5c0.3-0.1,0.6-0.3,0.9-0.5l0.1-0.1c-0.4,0.1-0.8,0.3-1.2,0.6
	c0,0-0.1,0-0.1,0.1c0,0-0.1,0-0.2-0.1c0,0,0,0,0-0.1c0.1-0.2,0.3-0.2,0.5-0.4c0.1,0,0.2,0,0.2,0.1c2.4-1.9,5.8-1.4,8.6-2.4
	c0.2-0.2,0.5-0.3,0.7-0.5c0.4-0.2,0.7-0.5,1.1-0.8c0.6-0.5,1.1-1,1.3-1.7c0-0.1-0.1-0.2-0.1-0.2c-1,1.1-2.1,1.9-3.3,2.5
	c-1.6,0.8-3.3,0.7-5,0.9c0.1-0.2,0.2-0.2,0.4-0.2c0-0.2,0.2-0.3,0.3-0.5h0.2c0.1,0,0.1-0.2,0.2-0.2c0.2,0,0.4-0.1,0.3-0.1
	c-0.2-0.3-0.7,0.2-1.1,0c0.2-0.2,0.1-0.4,0.2-0.5h0.3c0-0.2,0.2-0.3,0.2-0.3c1.1-0.7,2.2-1.2,3.3-1.8c-0.2,0-0.4,0.2-0.6,0.1
	c0.2,0,0-0.2,0.2-0.2c0.8-0.2,1.5-0.7,2.4-1c-0.3,0-0.5,0.2-0.8,0c0.2-0.1,0.2-0.2,0.5-0.2c0-0.1,0-0.2,0-0.2c0-0.1,0.1-0.1,0.2-0.1
	c-0.1,0-0.2-0.1-0.2-0.1c0.1-0.2,0.3-0.1,0.5-0.2c-0.1,0-0.2,0-0.2-0.1c0.2-0.3,0.6-0.4,1-0.5c-0.1-0.2-0.3,0-0.3-0.2
	c0-0.1,0.1-0.1,0.2-0.1c-0.1,0-0.1,0-0.2,0c-0.2-0.1-0.1-0.2-0.1-0.3c0.5-0.5,0.5-1.2,0.7-1.8c-0.1,0-0.2,0-0.2-0.1
	c-0.8,0.8-2,1.1-3.1,1.4c-0.1,0-0.3,0-0.4,0c-0.4,0.2-0.9,0.2-1.3-0.1c-0.3-0.2-0.5-0.4-0.8-0.6c-0.6-0.4-1.2-0.7-1.9-0.9
	C36,22.5,34,22.2,32,22.3c0.8-0.5,1.8-0.5,2.7-0.8c1.3-0.4,2.5-0.8,3.9-0.8c-0.2-0.1-0.5,0-0.8,0c-1.1-0.1-2.1,0.2-3.3,0.5
	c-0.8,0.2-1.4,0.5-2.2,0.6c-0.5,0.2-0.7,0.6-1.2,0.5v-0.2c0.8-0.9,1.7-1.8,2.9-1.9c1.4-0.2,2.7,0,4,0.2c1,0.1,1.9,0.3,2.9,0.5
	c0.4,0,0.5,0.6,0.8,0.7c0.5,0.2,0.9,0,1.4,0.3c0-0.2-0.1-0.3,0-0.5c0.3-0.3,0.7,0.1,1-0.1c0.6-0.4-0.5-1.1-0.8-1.6
	c0-0.1,0.1-0.2,0.1-0.2c0.6,0.5,1.1,1.1,1.8,1.5c0.4,0.2,1.3,0.4,1.1-0.1c-0.4-0.8-1.1-1.5-1.7-2.3c0-0.1,0-0.2,0-0.3
	c-0.2,0-0.2-0.1-0.2-0.2s0-0.2,0-0.3c-0.3-0.2-0.2-0.5-0.4-0.7c-0.2-0.4-0.1-0.9-0.2-1.4s-0.2-0.8-0.3-1.3c-0.2-1.3-0.5-2.4-0.7-3.6
	c-0.2-1.4,0.8-2.6,1.5-3.9c0.5-0.9,1.1-1.8,2.1-2.4c0.2-0.9,0.8-1.7,1.4-2.4s1.6-1.2,2.3-1.5c1.1-0.5,2-0.8,2-0.8H0V40h36.9
	c1.4-1,2.9-1.5,4.9-2.5C42.8,37.2,44.9,36.2,45.7,35.4L45.7,35.4z M34,30c-0.2,0-0.5,0.1-0.4-0.1c0.1-0.4,0.6-0.4,0.9-0.5
	c0.2-0.1,0.4-0.2,0.5-0.2c0.2,0.2,0.4,0.2,0.5,0.3C35.1,30,34.5,29.8,34,30z M22.4,28.3c0,0-0.1-0.1-0.1-0.2c1-1.3,1.7-2.5,2.4-3.9
	c1-0.5,1.8-1.3,2.6-2.1c1.3-1.4,2.7-2.6,4.3-3.3c0.6-0.2,1.4-0.2,2,0.1c-0.2,0.3-0.6,0.2-0.9,0.5c-0.1,0-0.2,0-0.2-0.1
	c0.1-0.1,0.1-0.2,0.1-0.2c-0.8,0.8-1.8,1.2-2.4,2.2c-0.5,0.8-0.8,1.7-1.7,2c-0.3,0.1,0.1-0.2-0.1-0.2C25.9,24.5,24.2,26.3,22.4,28.3
	z M28.7,23.3c-0.1,0.2-0.2,0.2-0.2,0.3c-0.1,0.2-0.2,0.2-0.3,0.3c-0.1,0-0.2,0-0.2-0.1c0.1-0.3,0.3-0.6,0.6-0.7
	C28.7,23.2,28.7,23.2,28.7,23.3z M32.2,34.7c0,0.1-0.1,0.2-0.2,0.2c0.1,0,0.2,0.1,0.1,0.1c-0.2,0.2-0.3,0.3-0.6,0.4h-0.1
	c-0.1,0.1-0.2,0.2-0.3,0.3s-0.5,0-0.4-0.1c0.2-0.2,0.4-0.4,0.6-0.5c0.1-0.1,0.2-0.2,0.3-0.3l0.2-0.2C31.9,34.6,32.3,34.5,32.2,34.7z
	 M30.8,34.1c-0.3,0.2-0.6,0.4-0.9,0.6s-0.7,0.3-1,0.5s-0.1-0.1-0.1,0c-0.3,0.2-0.5,0.4-0.8,0.6l-0.1,0.1L27.8,36
	c-0.1,0.1-0.1,0.1-0.2,0.2l-0.1,0.1c0,0-0.2,0-0.2-0.1s-0.1,0-0.1,0.1c0,0-0.1,0-0.1,0.1c0,0,0,0-0.1,0c0,0,0,0-0.1,0
	c-0.1,0.1-0.2,0.2-0.3,0.2c-0.2,0.1-0.3,0.3-0.4,0.5s0,0.1-0.1,0.1s0,0-0.1,0s0-0.1-0.1-0.1c0.1-0.1,0.2-0.2,0.2-0.3l0.1-0.1
	c0-0.1,0.1-0.1,0.1-0.2c0,0,0,0,0-0.1c0.1-0.1,0.2-0.2,0.2-0.3s0.1-0.1,0.1-0.2c0,0,0.1-0.1,0.1-0.2c0-0.1,0.1-0.1,0.1-0.2v-0.1
	v-0.1c0,0,0,0,0-0.1c0.1-0.1,0.2-0.3,0.3-0.4C27,34.9,26.9,35,26.8,35c-0.1,0.1-0.2,0-0.1-0.1c0.1,0,0.1-0.1,0.2-0.2
	c0.1-0.1,0.2-0.3,0.4-0.4c0.1-0.1,0.2-0.1,0.2-0.2c0.1-0.1,0.1-0.1,0.2-0.2c0.7-0.7,1.9-0.7,2.9-1.1c0.4-0.2,0.8,0.1,1.2,0
	c0.2,0,0.5,0,0.7,0.2C32.1,33.3,31.5,33.7,30.8,34.1z M32.4,28.8c-0.1-0.1,0.2,0,0.3-0.2c-0.2,0-0.4,0-0.6,0c-0.1,0-0.1-0.1-0.1-0.2
	c-0.4,0.1-0.8,0.2-1.2,0.3c-0.5,0.2-1,0.5-1.6,0.7c-0.8,0.3-1.5,1-2.4,1.3c-0.1,0-0.1-0.1-0.1-0.2c0.1-0.2,0.4-0.3,0.5-0.5
	c0-0.1,0-0.2-0.1-0.2c0.6-0.8,1.4-1.3,2.2-2c0-0.1,0-0.2,0-0.2c0.2-0.3,0.6-0.5,0.8-0.8c0.1-0.2,0.4-0.5,0.8-0.7
	c-0.1-0.1-0.2-0.1-0.2-0.2c-0.3,0-0.6,0.2-0.9-0.1c0.1-0.1,0.3-0.2,0.5-0.3c-0.1,0-0.1,0-0.2-0.1c-0.1-0.2,0.1-0.3,0.4-0.4
	s0.7-0.1,0.9-0.3c-0.5-0.1-1.1,0.2-1.7-0.2c0.4-1,1-1.8,1.9-2.3c0.1,0,0.2,0,0.2,0.1c0,0.4-0.2,0.7-0.6,0.8c0.6,0.2,1.2,0.2,1.8,0.5
	c-0.1,0.2-0.2,0.1-0.3,0.1c0.4,0.2,0.8,0.1,1.2,0.4c-0.2,0.2-0.5,0-0.7,0c2.4,0.7,4.9,1.2,6.8,2.7c-1.7,0.8-3.4,1.2-5.2,1.6
	c-0.2,0-0.4,0-0.6-0.1c0,0.1,0,0.2-0.1,0.2c-0.3,0-0.5,0-0.8,0.2C33.1,28.9,32.6,29,32.4,28.8z"/>
<path class="st1" d="M110.5,0H67.3c0,0,0.1,0,0.4,0.2c0.4,0.2,0.8,0.4,1.1,0.6c0.6,0.3,1.1,0.7,1.4,1.2c0.2,0.2,0.4,0.7,0.2,1
	c-0.2,0.4-0.2,1-0.6,1.1c-0.5,0.2-1.1,0.2-1.6,0.2c-0.3,0-0.6-0.1-0.9-0.2c1.1,0.5,2.2,1,3,2c0.1,0.2,0.4,0.2,0.7,0.2v0.3
	c-0.2,0.2-0.3,0.2-0.2,0.5H71c0.4-0.2,0.3-0.9,0.8-0.7c0.4,0.2,0.5,0.8,0.3,1.1c-0.3,0.3-0.6,0.5-0.9,0.8c-0.1,0.2-0.1,0.4,0,0.5
	c0.2,0.3,0.3,0.6,0.4,0.9c0.2,0.5,0.3,1.1,0.5,1.7c0.3,1.1,0.6,2.3,0.5,3.4c0,0.6-0.3,1.1-0.1,1.7s0.5,1.1,0.8,1.6s0.6,0.8,0.8,1.2
	c0.5,0.8,1.3,1.5,0.9,2.4c-0.2,0.5-1.1,0.5-1.6,0.8c-0.5,0.4-0.1,1,0.2,1.4c0.4,0.7-0.5,1.1-1,1.4c0.2,0.2,0.5,0.2,0.5,0.3
	c0.1,0.4,0.5,0.6,0.2,1c-0.3,0.5-1.2,0.7-0.8,1.4c0.3,0.5,0.1,1.1-0.1,1.7c-0.2,0.7-0.8,1-1.4,1.1c-0.5,0.2-1,0.2-1.4,0.1
	c-0.2-0.1-0.3-0.2-0.5-0.2c-1.3-0.2-2.6-0.5-3.9-0.5c-0.4,0.1-0.8,0.2-1.1,0.3c-0.3,0.3-0.6,0.5-0.9,0.8c-0.1,0.1-0.1,0.1-0.2,0.2
	l-0.1,0.1c0,0,0,0.1-0.1,0.1c-0.2,0.3-0.4,0.6-0.6,0.9v0.1c0,0,0,0.1-0.1,0.1c-0.2,0.5-0.4,0.9-0.6,1.4c-0.5,1.7-0.3,3.2,0.1,3.6
	c0.1,0.1,2.5,0.8,4.2,1.6c0.8,0.3,1.3,0.6,1.8,0.9H110V0L110.5,0z"/>
<path class="st2" d="M69.8,14.7c0.3,0.1,0.8,0.1,0.8,0.2c-0.2,0.6-1.1,0.8-1.5,1.4h-0.2c-0.2,0.2-0.2,0.5-0.4,0.5
	c-0.2-0.1-0.5,0-0.7,0.1c0.3,0.3,0.7,0.5,1.1,0.5c0.1,0,0.2,0.2,0.2,0.3c0,0,0.1,0,0.2-0.1c0.1,0,0.2,0,0.2,0.1V18
	c-0.2,0.3-0.6,0.2-0.9,0.2c0.6,0.2,1.2,0.2,1.7,0s0-0.9,0.3-1.3c-0.2,0,0-0.2-0.2-0.2c0.2-0.2,0.3-0.4,0.5-0.5
	c0.2,0,0.4-0.1,0.5-0.2c0-0.2-0.3-0.2-0.2-0.4c0.5-0.3,0.8-0.8,0.7-1.2c-0.1-0.2-0.7-0.2-1.1-0.4s-0.8,0-1.3,0.1
	c-0.4,0-0.8,0.2-1.1,0.3c-0.5,0.2-1,0.5-1.4,0.8c0.5-0.2,1.1-0.3,1.7-0.5C69,14.7,69.4,14.5,69.8,14.7z"/>
<g>
	<path d="M16.5,91.1c-2.2,0-4.1-0.4-5.9-1.1c-1.8-0.7-3.4-1.8-4.7-3.2c-1.3-1.4-2.4-3-3.1-4.9C2,80.1,1.6,78,1.6,75.8
		c0-2.2,0.4-4.3,1.1-6.1c0.7-1.9,1.8-3.5,3.1-4.9c1.3-1.4,2.9-2.4,4.7-3.2c1.8-0.7,3.8-1.1,6-1.1c2.4,0,4.6,0.4,6.5,1.3
		c1.9,0.9,3.6,2.1,4.9,3.8l-4,4.1c-1-1.1-2.1-2-3.2-2.5c-1.2-0.5-2.4-0.8-3.8-0.8c-1.3,0-2.5,0.2-3.6,0.7c-1.1,0.5-2,1.1-2.8,1.9
		s-1.4,1.8-1.8,3C8.2,73.1,8,74.4,8,75.8c0,1.4,0.2,2.7,0.6,3.8c0.4,1.2,1,2.2,1.8,3c0.8,0.9,1.7,1.5,2.8,2c1.1,0.5,2.3,0.7,3.6,0.7
		c1.2,0,2.5-0.2,3.6-0.7c1.2-0.4,2.3-1.2,3.4-2.2l3.6,4.9c-1.5,1.2-3.2,2.1-5.2,2.8C20.4,90.8,18.4,91.1,16.5,91.1z M21.7,86.5V75.3
		h5.8v12L21.7,86.5z"/>
	<path d="M46.5,91.1c-2.2,0-4.1-0.4-6-1.1c-1.8-0.8-3.4-1.8-4.7-3.2c-1.3-1.4-2.4-3-3.1-4.9s-1.1-3.9-1.1-6.1s0.4-4.2,1.1-6.1
		s1.8-3.5,3.1-4.9c1.3-1.4,2.9-2.5,4.7-3.2c1.8-0.8,3.8-1.1,5.9-1.1c2.2,0,4.1,0.4,5.9,1.1c1.8,0.8,3.4,1.8,4.7,3.2
		c1.3,1.4,2.4,3,3.1,4.8c0.8,1.8,1.1,3.9,1.1,6.1c0,2.2-0.4,4.2-1.1,6.1c-0.8,1.9-1.8,3.5-3.1,4.9c-1.3,1.4-2.9,2.4-4.7,3.2
		C50.6,90.7,48.6,91.1,46.5,91.1z M46.5,85.3c1.2,0,2.3-0.2,3.4-0.7c1-0.5,1.9-1.1,2.7-1.9s1.4-1.8,1.8-3c0.4-1.2,0.6-2.4,0.6-3.9
		c0-1.4-0.2-2.7-0.6-3.9c-0.4-1.2-1-2.2-1.8-3c-0.8-0.8-1.7-1.5-2.7-1.9c-1-0.5-2.2-0.7-3.4-0.7s-2.3,0.2-3.4,0.7
		c-1,0.5-1.9,1.1-2.7,1.9c-0.8,0.8-1.4,1.8-1.8,3c-0.4,1.2-0.6,2.4-0.6,3.9c0,1.4,0.2,2.7,0.6,3.8c0.4,1.2,1,2.2,1.8,3
		c0.8,0.8,1.7,1.5,2.7,1.9C44.1,85,45.3,85.3,46.5,85.3z"/>
	<path d="M78.2,91.1c-3.9,0-6.9-1.2-9.1-3.5c-2.2-2.3-3.3-5.7-3.3-10V61h6.3v16.3c0,2.8,0.5,4.9,1.6,6.1c1.1,1.2,2.6,1.9,4.5,1.9
		c1.9,0,3.4-0.6,4.5-1.9c1.1-1.2,1.6-3.3,1.6-6.1V61h6.2v16.6c0,4.3-1.1,7.7-3.3,10C85.1,89.9,82.1,91.1,78.2,91.1z"/>
	<path d="M104.9,90.6L93.2,61h6.8l10.3,26.2h-4L116.6,61h6.3l-11.8,29.6H104.9z"/>
	<path d="M131.4,85.1h14.8v5.5h-21.1V61h20.6v5.5h-14.3V85.1z M130.9,72.9h13.1v5.3h-13.1V72.9z"/>
	<path d="M151.2,90.6V61H163c2.4,0,4.5,0.4,6.3,1.3c1.8,0.9,3.1,2.1,4.1,3.7c1,1.6,1.4,3.5,1.4,5.8c0,2.2-0.5,4.1-1.4,5.7
		c-1,1.6-2.3,2.8-4.1,3.7c-1.8,0.8-3.9,1.3-6.3,1.3h-8.3l2.8-3v11.3H151.2z M157.5,80.1l-2.8-3.2h7.9c1.9,0,3.4-0.5,4.4-1.4
		c1-0.9,1.4-2.2,1.4-3.8c0-1.6-0.5-2.9-1.4-3.8c-1-0.9-2.4-1.4-4.4-1.4h-7.9l2.8-3.3V80.1z M168.5,90.6l-6.8-10.7h6.7l6.9,10.7
		H168.5z"/>
	<path d="M179.8,90.6V61h5.2l16.1,21.3h-2.5V61h6.2v29.6h-5.2l-16.1-21.3h2.5v21.3H179.8z"/>
	<path d="M217.5,85.1h14.8v5.5h-21.1V61h20.6v5.5h-14.3V85.1z M217,72.9h13.1v5.3H217V72.9z"/>
	<path d="M237.3,90.6V61h5.2l11.6,20.9h-2.8L262.7,61h5.2l0.1,29.6h-5.9l0-19.8h1.1L254,87.5h-2.8l-9.3-16.6h1.3v19.8H237.3z"/>
	<path d="M280.7,85.1h14.8v5.5h-21.1V61H295v5.5h-14.3V85.1z M280.2,72.9h13.1v5.3h-13.1V72.9z"/>
	<path d="M300.5,90.6V61h5.2l16.1,21.3h-2.5V61h6.2v29.6h-5.2l-16.1-21.3h2.5v21.3H300.5z"/>
	<path d="M337.6,90.6v-24h-8.7V61h23.7v5.6h-8.7v24H337.6z"/>
</g>
</svg>
